<?xml version="1.0" encoding="UTF-8"?>
<svg version="1.1" xmlns="http://www.w3.org/2000/svg" width="256" height="256">
<path d="M0 0 C0.91304561 -0.00297112 1.82609122 -0.00594224 2.76680487 -0.0090034 C5.83906786 -0.01770397 8.91129194 -0.01919979 11.98356628 -0.02069092 C14.18114302 -0.02531811 16.37871895 -0.03034264 18.57629395 -0.03573608 C24.55566701 -0.04887118 30.53502883 -0.05530715 36.51441407 -0.05974674 C40.24810262 -0.06267555 43.98178808 -0.06677998 47.71547508 -0.07125092 C59.39158879 -0.08492848 71.06769604 -0.09460993 82.74381715 -0.09845281 C84.08773093 -0.09889627 85.4316447 -0.09934284 86.77555847 -0.09979248 C87.77549948 -0.10012463 87.77549948 -0.10012463 88.79564133 -0.10046348 C99.59699409 -0.10441136 110.39827939 -0.12186519 121.1996061 -0.145152 C132.2896723 -0.16886829 143.37971043 -0.18107002 154.46980304 -0.18249393 C160.69628614 -0.18354322 166.9226741 -0.18947767 173.14913368 -0.20731354 C179.0054784 -0.22376257 184.86165612 -0.22596508 190.71801567 -0.21717453 C192.86826651 -0.21640247 195.01852622 -0.22076902 197.16875458 -0.23063278 C200.10285613 -0.24330375 203.03636186 -0.23750172 205.97045898 -0.22705078 C207.2485325 -0.23913539 207.2485325 -0.23913539 208.55242568 -0.25146413 C215.71542344 -0.19174193 220.98657766 2.08436914 226.17570496 7.14044189 C233.28698343 15.2875488 231.88673552 25.9842753 231.83854675 36.097229 C231.84696661 38.1315759 231.85749468 40.16591499 231.8699646 42.20024109 C231.89696698 47.70860734 231.89232384 53.2165198 231.88026404 58.7249229 C231.87312131 63.3297751 231.88163981 67.93454399 231.89016944 72.53938967 C231.91010709 83.40542578 231.90456881 94.27124179 231.88249207 105.13726807 C231.86012936 116.33404912 231.87772944 127.53025357 231.91554135 138.72698015 C231.94680489 148.35360979 231.95468226 157.98006122 231.9435876 167.60673529 C231.93710967 173.35043954 231.93905951 179.09381116 231.96291161 184.83747673 C231.98420349 190.23944043 231.97613334 195.64059239 231.94581795 201.04250526 C231.9395044 203.02013967 231.94331773 204.99783746 231.95822906 206.97542572 C232.09599901 226.8653501 232.09599901 226.8653501 225.17570496 234.14044189 C224.63428297 234.7660948 224.09286098 235.3917477 223.53503227 236.03635979 C215.95605956 242.80341498 204.05079441 240.94905415 194.59489441 240.86920166 C192.38657628 240.87242282 190.17826064 240.87824289 187.96995544 240.88645935 C181.98861944 240.90096872 176.00795762 240.87808516 170.02670312 240.84760022 C163.76348685 240.82120479 157.50029058 240.82653206 151.23703003 240.8276825 C140.72324005 240.82487537 130.20966786 240.79902159 119.69596863 240.75787354 C108.8853738 240.71558564 98.07500667 240.69436273 87.264328 240.6963501 C86.26485239 240.6965299 86.26485239 240.6965299 85.24518535 240.69671334 C84.58000167 240.6968344 83.91481799 240.69695546 83.22947723 240.69708019 C70.28385165 240.69925565 57.33833084 240.67828803 44.3927381 240.65074039 C40.66318136 240.64434676 36.93364231 240.64221692 33.20408058 240.64102364 C27.34595956 240.63801047 21.48807754 240.61969747 15.6300354 240.58952522 C13.4797989 240.58076243 11.32953489 240.57707166 9.17928123 240.57880783 C6.2454467 240.58028031 3.31228132 240.56331102 0.37854004 240.5415802 C-0.4733072 240.54622601 -1.32515444 240.55087181 -2.20281523 240.5556584 C-9.35845951 240.46805719 -14.63949122 238.19230203 -19.82429504 233.14044189 C-26.93557352 224.99333499 -25.53532561 214.29660848 -25.48713684 204.18365479 C-25.4955567 202.14930789 -25.50608476 200.1149688 -25.51855469 198.0806427 C-25.54555707 192.57227645 -25.54091393 187.06436399 -25.52885413 181.55596089 C-25.52171139 176.95110869 -25.5302299 172.3463398 -25.53875953 167.74149412 C-25.55869718 156.87545801 -25.55315889 146.009642 -25.53108215 135.14361572 C-25.50871945 123.94683467 -25.52631953 112.75063022 -25.56413144 101.55390364 C-25.59539497 91.927274 -25.60327234 82.30082257 -25.59217769 72.6741485 C-25.58569975 66.93044425 -25.58764959 61.18707263 -25.61150169 55.44340706 C-25.63279358 50.04144336 -25.62472343 44.6402914 -25.59440804 39.23837852 C-25.58809449 37.26074412 -25.59190782 35.28304633 -25.60681915 33.30545807 C-25.743139 13.62488584 -25.743139 13.62488584 -18.82429504 6.14044189 C-12.87582591 0.77362953 -7.77041493 -0.00784046 0 0 Z " fill="#000000" transform="translate(24.824295043945313,7.85955810546875)"/>
<path d="M0 0 C1.26779297 -0.07927734 2.53558594 -0.15855469 3.84179688 -0.24023438 C12.94507019 -0.44506993 12.94507019 -0.44506993 16.52856445 2.52294922 C18.42550648 5.14891522 19.87192762 7.78662788 21.3125 10.6875 C21.86462158 11.66759033 22.41674316 12.64768066 22.9855957 13.6574707 C24.75625466 16.80628543 26.44594349 19.9889922 28.125 23.1875 C29.35979407 25.50958435 30.59547379 27.83119796 31.83203125 30.15234375 C32.42838379 31.27495605 33.02473633 32.39756836 33.63916016 33.55419922 C35.82262925 37.64270845 38.05362336 41.70276713 40.3125 45.75 C40.69825195 46.4414209 41.08400391 47.1328418 41.48144531 47.84521484 C42.75673083 50.1269503 44.03461887 52.40721725 45.3125 54.6875 C46.44932835 56.71999079 47.58603916 58.75254732 48.72265625 60.78515625 C49.32190918 61.85540039 49.92116211 62.92564453 50.53857422 64.02832031 C51.75538602 66.20441075 52.96929185 68.38212888 54.18017578 70.56152344 C56.78033231 75.23075292 59.3934921 79.87347636 62.20703125 84.41796875 C62.63169678 85.11905762 63.0563623 85.82014648 63.49389648 86.54248047 C64.24875213 87.78044991 65.02338966 89.00675558 65.82446289 90.21533203 C69.14115609 95.72153908 69.35156346 101.4310015 68.3125 107.6875 C66.54192942 112.39057811 64.14316361 116.66645995 61.625 121 C60.94053826 122.2206641 60.2583602 123.44261129 59.57836914 124.66577148 C57.85050241 127.76045703 56.09419041 130.83787691 54.32897949 133.91137695 C52.74665724 136.67621288 51.19046413 139.45558567 49.6328125 142.234375 C47.50765065 146.01999744 45.36931992 149.79739894 43.21484375 153.56640625 C39.14472212 160.71116872 35.24816266 167.94921481 31.34765625 175.1875 C17.90527154 200.09472846 17.90527154 200.09472846 14.3125 203.6875 C9.73697591 204.0263324 5.14894922 204.01264729 0.5625 204.0625 C-1.37109375 204.11857422 -1.37109375 204.11857422 -3.34375 204.17578125 C-4.58640625 204.18738281 -5.8290625 204.19898438 -7.109375 204.2109375 C-8.24987305 204.23075684 -9.39037109 204.25057617 -10.56542969 204.27099609 C-14.63333748 203.51072869 -16.08569898 201.82253441 -18.6875 198.6875 C-20.08987004 195.88275992 -19.89539686 193.80310497 -19.6875 190.6875 C-18.68457031 188.06054688 -18.68457031 188.06054688 -17.265625 185.40625 C-16.740896 184.41093262 -16.21616699 183.41561523 -15.67553711 182.39013672 C-15.10198486 181.3332666 -14.52843262 180.27639648 -13.9375 179.1875 C-13.34912354 178.08035645 -12.76074707 176.97321289 -12.15454102 175.83251953 C-10.34719941 172.44251321 -8.5213194 169.06324713 -6.6875 165.6875 C-6.15946777 164.71522461 -5.63143555 163.74294922 -5.08740234 162.74121094 C-3.1136328 159.11467212 -1.13528889 155.49074219 0.85375977 151.87255859 C5.02113856 144.27915649 9.03091795 136.60914748 12.99511719 128.90795898 C15.27035561 124.50944261 17.58302599 120.15921727 20.1015625 115.89453125 C20.52928955 115.16669434 20.9570166 114.43885742 21.39770508 113.68896484 C22.18721292 112.36123472 22.99072308 111.04167958 23.8112793 109.73291016 C25.42728929 107.01693327 26.30761318 105.04130547 26.3515625 101.859375 C24.8547157 97.2900532 22.66872989 93.21568134 20.375 89 C19.36450687 87.10941587 18.35409175 85.21879004 17.34375 83.328125 C16.83328125 82.38001953 16.3228125 81.43191406 15.796875 80.45507812 C14.03195174 77.16442516 12.30159842 73.85660422 10.57421875 70.54614258 C6.59202153 62.92143475 2.50728797 55.35677495 -1.625 47.8125 C-3.13623922 45.04246609 -4.64588947 42.27157695 -6.15429688 39.5 C-7.1915539 37.59726099 -8.23201046 35.69626325 -9.27539062 33.796875 C-10.8214266 30.97550231 -12.34995635 28.14526293 -13.875 25.3125 C-14.34478271 24.46316895 -14.81456543 23.61383789 -15.29858398 22.73876953 C-18.02827372 17.62206734 -19.54871617 13.52272903 -19.6875 7.6875 C-15.05730853 -1.09389762 -9.10115676 0.25977263 0 0 Z " fill="#FDFDFD" transform="translate(40.6875,25.3125)"/>
<path d="M0 0 C1.16217041 -0.00563965 2.32434082 -0.0112793 3.52172852 -0.01708984 C4.79467773 -0.02353516 6.06762695 -0.02998047 7.37915039 -0.03662109 C8.36975464 -0.02091064 8.36975464 -0.02091064 9.38037109 -0.00488281 C11.3923052 0.02186193 13.39864093 -0.00461415 15.41040039 -0.03662109 C17.32175781 -0.02695312 17.32175781 -0.02695312 19.27172852 -0.01708984 C21.01667603 -0.00863037 21.01667603 -0.00863037 22.796875 0 C27.02409839 0.86376297 28.48820583 2.12976979 30.96313477 5.64697266 C31.76591958 11.62401549 30.54816722 15.60027804 27.66625977 20.87353516 C27.14927269 21.86543854 27.14927269 21.86543854 26.62184143 22.87738037 C25.50120634 25.01755826 24.35771941 27.14452228 23.21313477 29.27197266 C22.42627108 30.76298626 21.64071852 32.25469249 20.85644531 33.74707031 C16.11939896 42.73222962 11.28484271 51.66711387 6.37475586 60.55883789 C1.5834085 69.25317484 -2.96214227 78.0731952 -7.49462891 86.90429688 C-8.05770752 87.99887207 -8.62078613 89.09344727 -9.20092773 90.22119141 C-9.95043701 91.68431763 -9.95043701 91.68431763 -10.71508789 93.17700195 C-12.03686523 95.64697266 -12.03686523 95.64697266 -14.03686523 98.64697266 C-13.75390494 103.88780437 -12.28180305 107.72453541 -9.86108398 112.33837891 C-9.54017288 112.95639877 -9.21926178 113.57441864 -8.8886261 114.21116638 C-7.84399614 116.21608975 -6.78454435 118.2127345 -5.72436523 120.20947266 C-4.98862006 121.6133929 -4.25360124 123.01769402 -3.51928711 124.42236328 C0.56190319 132.20742311 4.72950485 139.9437374 8.96313477 147.64697266 C13.5688043 156.04535655 18.14089063 164.46141086 22.60766602 172.93457031 C23.33681922 174.3113945 24.07173179 175.68518607 24.81274414 177.05566406 C25.85275743 178.98177246 26.87095464 180.91803784 27.88500977 182.85791016 C28.47894531 183.97472168 29.07288086 185.0915332 29.68481445 186.2421875 C31.27386863 190.4746072 31.37063229 193.15223993 30.96313477 197.64697266 C28.78739061 200.33802464 27.0524762 202.10230194 23.96313477 203.64697266 C19.72139362 204.05198575 15.47137686 204.11081726 11.21313477 204.20947266 C10.03235352 204.27199219 8.85157227 204.33451172 7.63500977 204.39892578 C-0.83305065 204.5562715 -0.83305065 204.5562715 -4.02270508 202.14697266 C-5.63638797 200.06373238 -6.83884255 197.9925257 -8.03686523 195.64697266 C-8.45967773 194.92807861 -8.88249023 194.20918457 -9.31811523 193.46850586 C-10.65622712 191.18028384 -11.91366189 188.86035811 -13.16186523 186.52197266 C-13.63140625 185.65580322 -14.10094727 184.78963379 -14.5847168 183.8972168 C-15.57620342 182.06762542 -16.5650979 180.23662715 -17.55151367 178.40429688 C-19.94782164 173.95592373 -22.36754712 169.52036143 -24.78686523 165.08447266 C-25.52175171 163.73591187 -25.52175171 163.73591187 -26.27148438 162.36010742 C-30.35348061 154.87807914 -34.46868942 147.41472423 -38.59936523 139.95947266 C-39.22883057 138.81792725 -39.8582959 137.67638184 -40.50683594 136.50024414 C-43.38716284 131.30130453 -46.30474225 126.1490743 -49.43530273 121.09619141 C-49.9514917 120.25209717 -50.46768066 119.40800293 -50.99951172 118.53833008 C-51.9414979 117.01097457 -52.90283767 115.4952774 -53.88867188 113.99584961 C-57.37350117 108.31917731 -58.35437931 103.2264865 -57.03686523 96.64697266 C-55.09291028 91.87174077 -52.54476518 87.50367998 -49.91186523 83.08447266 C-49.17707142 81.81107631 -48.44493544 80.53614296 -47.71533203 79.25976562 C-46.22263292 76.65053175 -44.72070593 74.04695377 -43.21313477 71.44628906 C-39.95548694 65.79526732 -36.9092648 60.03168103 -33.84936523 54.27197266 C-28.84751536 44.92455661 -23.70708564 35.66542623 -18.45825195 26.45458984 C-15.02041957 20.4172643 -11.68997756 14.3439806 -8.50170898 8.17041016 C-4.28927171 0.91378487 -4.28927171 0.91378487 0 0 Z " fill="#FDFDFD" transform="translate(203.036865234375,25.35302734375)"/>
</svg>
